<svg width="193" height="193" viewBox="0 0 193 193" fill="none" xmlns="http://www.w3.org/2000/svg">
<g clip-path="url(#clip0_1379_1231)">
<path d="M44.824 91.9216C47.5073 91.4907 52.4594 92.964 55.21 93.5193L59.9364 94.4427C61.3977 94.7264 63.5904 94.9064 64.4848 96.1927C64.981 96.9165 65.1526 97.8155 64.9583 98.6722C64.3016 101.543 61.2067 100.863 59.2109 100.485C57.8549 100.227 56.5018 99.9529 55.152 99.6635C54.2488 99.4694 52.1394 98.7485 51.5035 99.6447C49.6858 102.207 56.1017 102.543 57.7825 103.085C62.7667 104.692 64.1787 103.606 68.203 100.647L73.2589 96.925C74.4863 96.0212 76.1551 94.5417 77.7364 94.6359C78.6319 94.6868 79.4645 95.1128 80.0308 95.8083C80.5492 96.4359 80.7856 97.2501 80.6843 98.0587C80.4832 99.6551 78.8637 100.541 77.6216 101.476C74.8345 103.511 72.1392 105.703 69.3742 107.771C66.8973 109.603 64.3658 112.035 61.1199 112.277C57.4327 112.553 53.3571 111.08 49.7296 110.335C46.1404 109.599 43.0264 108.617 39.2899 109.304C36.0413 109.902 33.9308 111.133 31.4843 113.244L31.481 98.4177C35.6505 95.3182 39.4406 92.4071 44.824 91.9216Z" fill="#27438A"/>
<path d="M41.8257 69.6031C44.7515 68.4202 50.639 68.6508 54.0119 68.6898C57.1649 68.7262 62.8172 68.3703 65.5992 69.2016C68.4472 69.7992 70.8742 71.3961 72.8777 73.4577C71.4978 73.5181 69.9515 73.4639 68.5449 73.4888C67.3412 73.5101 65.8404 73.5385 64.661 73.3875C63.9384 73.2949 63.7583 72.9901 62.9406 73.1776C63.7927 73.9031 64.6531 74.619 65.5214 75.3251C62.1653 75.3029 58.8091 75.3063 55.453 75.3354C50.6492 75.3523 45.8887 74.7152 42.1605 78.4797C39.529 81.1367 38.7197 83.7698 38.7014 87.4405L38.6943 91.0583C37.7869 91.4372 36.6482 91.9382 35.8215 92.4658C34.2291 93.4519 32.9417 94.2766 31.4605 95.4159C31.5024 92.6693 31.4434 89.8955 31.4654 87.1477C31.4792 85.4237 31.389 83.6622 31.6308 81.9561C31.8569 80.3805 32.3209 78.8484 33.0071 77.4122C34.7984 73.7454 37.9692 70.9375 41.8257 69.6031Z" fill="#27438A"/>
<path d="M35.8217 92.4661L35.7975 87.0554C35.782 83.3873 35.6384 80.7067 37.9491 77.519C39.6597 75.1443 42.2431 73.5457 45.1316 73.0743C46.5609 72.8533 48.094 72.9005 49.5439 72.9032L55.2615 72.9183L59.9049 72.8938C60.7344 72.8889 62.3217 72.7201 62.9407 73.1779C63.7928 73.9034 64.6532 74.6193 65.5215 75.3254C62.1654 75.3032 58.8092 75.3066 55.4531 75.3357C50.6493 75.3526 45.8889 74.7155 42.1606 78.48C39.5292 81.137 38.7199 83.7701 38.7016 87.4408L38.6944 91.0586C37.7871 91.4375 36.6483 91.9385 35.8217 92.4661Z" fill="#CFD4DB"/>
<path d="M62.9406 73.177C63.7583 72.9895 63.9384 73.2943 64.661 73.3869C65.8404 73.5379 67.3413 73.5095 68.545 73.4882C69.9516 73.4633 71.4978 73.5175 72.8778 73.4571C73.608 73.6247 74.5478 73.58 75.3389 73.714C81.5931 74.7726 86.5681 80.1031 86.7988 86.5068C86.9025 89.3842 86.8442 92.3658 86.8446 95.273L86.8454 101.69C86.8436 103.824 86.9315 105.897 86.4833 107.995C85.763 111.531 83.6421 114.625 80.604 116.572C79.9972 116.962 79.2713 117.345 78.6157 117.651L78.6224 127.405C74.5262 124.789 70.3595 121.92 66.2911 119.225L59.8614 119.241C58.8211 118.396 55.8623 116.086 55.1836 115.159C59.2055 115.114 63.4842 115.217 67.5451 115.219C67.8883 115.432 68.2002 115.693 68.521 115.937C70.5166 117.459 72.606 118.843 74.6786 120.258C74.6405 118.503 74.6673 116.677 74.6694 114.916C76.6435 114.398 78.5135 113.673 79.9536 112.18C82.7059 109.327 83.0046 106.807 83.0191 103.105L83.0167 93.165C83.0185 90.9931 83.1684 86.9022 82.694 84.9485C82.271 83.1666 81.3641 81.5362 80.0733 80.237C76.6689 76.8502 72.4785 77.3832 68.0477 77.3942L65.5214 75.3245C64.6531 74.6185 63.7927 73.9025 62.9406 73.177Z" fill="#F17233"/>
<path d="M139.494 91.5288C140.504 90.4019 141.627 89.7306 143.139 89.5235C144.875 89.293 146.631 89.7708 148.011 90.8492C152.617 94.4377 151.033 103.291 144.764 103.927C142.323 104.174 141.404 103.433 139.65 101.999L139.551 102.114C139.618 104.168 139.583 106.34 139.581 108.402C138.897 108.413 136.881 108.481 136.348 108.327L136.282 108.076C136.188 106.18 136.256 103.68 136.255 101.746L136.264 89.8784L139.477 89.8798L139.494 91.5288Z" fill="#27438A"/>
<path d="M142.739 92.4671C143.583 92.39 144.294 92.4373 145.063 92.799C147.89 94.1296 148.041 99.1627 145.277 100.644C144.887 100.853 144.515 100.95 144.092 101.061C138.762 101.668 137.601 93.7224 142.739 92.4671Z" fill="white"/>
<path d="M106.034 85.2832L109.535 85.2864C109.522 86.9914 109.668 103.039 109.479 103.534L109.246 103.595L106.04 103.603L106.048 95.8793C103.238 95.917 100.361 95.8915 97.5452 95.8896L97.5678 103.596H94.0689L94.0654 85.284L97.5518 85.288V92.7436L106.028 92.7443L106.034 85.2832Z" fill="#27438A"/>
<path d="M119.684 89.4746C119.897 89.4799 120.109 89.4895 120.322 89.5034C124.977 89.7993 126.822 93.6345 126.511 97.8733L115.757 97.9233C116.887 101.676 121.069 102.188 123.588 99.644L124.374 100.175C125 100.513 125.366 100.667 126.032 100.928C122.409 106.359 112.657 104.253 112.46 97.3296C112.326 92.657 115.055 89.7044 119.684 89.4746Z" fill="#27438A"/>
<path d="M119.124 92.2784C121.65 92.1168 122.785 93.2852 123.374 95.6033C122.33 95.6344 121.177 95.6146 120.127 95.6155L115.715 95.591C116.214 93.5925 117.132 92.6851 119.124 92.2784Z" fill="white"/>
<path d="M55.4517 80.679C57.3148 79.4268 59.3323 78.1194 61.1528 76.8281C65.118 79.7619 69.434 82.406 73.4399 85.3072C74.111 85.7932 74.8405 86.292 75.534 86.7409L72.0964 86.7408L72.1083 94.9494C71.2723 95.5403 70.4122 96.1359 69.5861 96.738C69.6327 93.0171 69.6481 89.2963 69.6321 85.5755C66.9102 83.7477 63.7848 81.7505 61.1527 79.8553C59.4022 81.0425 56.4938 83.1411 54.7682 84.1359C54.2183 84.5848 53.3035 85.1401 52.6898 85.5592C52.6957 86.6969 52.7744 89.2411 52.656 90.2658C52.4386 90.4287 52.0632 90.2971 51.8024 90.233L50.1366 89.9292L50.1482 86.7226C48.9899 86.7239 47.8315 86.7348 46.6733 86.7554C47.4747 86.2047 48.3675 85.5613 49.1934 85.0671C50.1988 84.3367 51.2652 83.6355 52.2979 82.9389C52.3052 82.1396 52.2039 78.9783 52.3935 78.3888C53.0239 78.2723 54.7376 78.3246 55.4623 78.3306L55.4517 80.679Z" fill="#F17233"/>
<path d="M42.5833 111.574C42.6712 111.668 42.7605 111.76 42.8511 111.851C46.6774 115.686 50.1939 115.168 55.1839 115.16C55.8626 116.086 58.8214 118.397 59.8617 119.241L53.8673 119.272C51.354 119.282 49.1184 119.404 46.6474 118.786C42.9077 117.866 39.6938 115.482 37.7256 112.172C39.6998 111.657 40.5886 111.597 42.5833 111.574Z" fill="#27438A"/>
<path d="M132.334 84.3848L132.561 84.4626C132.659 84.8783 132.655 103.188 132.566 103.527L132.415 103.612L129.33 103.607L129.322 84.4115C130.342 84.4174 131.314 84.4225 132.334 84.3848Z" fill="#27438A"/>
<path d="M159.884 89.6437L161.164 89.5586L161.16 92.7202C157.997 92.8732 156.691 94.4186 156.732 97.5257C156.758 99.5283 156.736 101.591 156.743 103.598C155.806 103.607 154.417 103.66 153.52 103.563C153.367 103.277 153.418 102.953 153.419 102.601L153.426 89.8667L156.541 89.8782L156.571 92.2828L156.621 92.1927C157.43 90.7627 158.316 90.0817 159.884 89.6437Z" fill="#F17233"/>
<path d="M58.1659 88.707L60.7232 88.7125C60.7253 89.5735 60.722 90.4344 60.7133 91.2954L58.1641 91.2918L58.1659 88.707Z" fill="#27438A"/>
<path d="M61.6743 88.7068L64.1583 88.7051L64.1628 91.2951L61.6793 91.2973L61.6743 88.7068Z" fill="#F17233"/>
<path d="M58.1583 85.3289L60.707 85.3223L60.7035 87.8459L58.1528 87.83L58.1583 85.3289Z" fill="#F17233"/>
<path d="M61.6499 85.3202L64.1634 85.3105L64.1666 87.8354L61.6619 87.831L61.6499 85.3202Z" fill="#27438A"/>
</g>
<defs>
<clipPath id="clip0_1379_1231">
<rect width="193" height="193" fill="white"/>
</clipPath>
</defs>
</svg>
